<svg width="110" height="24" viewBox="0 0 110 24" fill="none" xmlns="http://www.w3.org/2000/svg">
<g clip-path="url(#clip0_4259_223)">
<path d="M28.3253 23.8776C26.9052 23.8776 25.7094 23.6175 24.7228 23.1116C23.7362 22.6058 22.9888 21.8831 22.4806 20.9582C21.9724 20.0332 21.7183 18.9492 21.7183 17.7352C21.7183 16.5067 21.9724 15.4227 22.4806 14.4977C22.9888 13.5728 23.7362 12.8501 24.7228 12.3298C25.7094 11.8095 26.9202 11.5349 28.3552 11.5349C29.7752 11.5349 30.9711 11.7951 31.9577 12.3298C32.9442 12.8501 33.6916 13.5872 34.1849 14.5122C34.6782 15.4372 34.9323 16.5211 34.9323 17.7641C34.9323 18.9637 34.6782 20.0332 34.17 20.9582C33.6617 21.8831 32.9143 22.6058 31.9427 23.1116C30.9561 23.6319 29.7603 23.8776 28.3253 23.8776ZM28.3253 21.782C29.2521 21.782 30.0144 21.5941 30.5974 21.2328C31.1804 20.8714 31.5989 20.38 31.8829 19.773C32.152 19.166 32.3015 18.4867 32.3015 17.7641C32.3015 17.027 32.1669 16.3622 31.8829 15.7407C31.5989 15.1192 31.1804 14.6278 30.5974 14.252C30.0144 13.8763 29.267 13.6884 28.3253 13.6884C27.4135 13.6884 26.6511 13.8763 26.0681 14.252C25.4852 14.6278 25.0517 15.1192 24.7826 15.7262C24.5135 16.3333 24.379 17.0125 24.379 17.7641C24.379 18.5012 24.5135 19.166 24.7826 19.773C25.0517 20.38 25.4852 20.8714 26.0681 21.2328C26.6511 21.5941 27.4135 21.782 28.3253 21.782Z" fill="#161414"/>
<path d="M36.5315 23.7475V11.7083H39.9546L44.155 17.4749L48.2806 11.7083H51.644V23.7475H48.9683V14.5555L44.4838 20.8569H43.7065L39.2072 14.541V23.7475H36.5315Z" fill="#161414"/>
<path d="M53.7664 23.7475V11.7083H56.4421V20.2354C56.5616 20.0475 56.7111 19.8452 56.9054 19.6284C57.0998 19.4116 57.2492 19.2237 57.3389 19.0937L63.5872 11.7083H66.0686V23.7475H63.3929V15.2637C63.2584 15.466 63.1089 15.6539 62.9594 15.8418C62.8099 16.0297 62.6604 16.2031 62.511 16.3621L56.2627 23.7475H53.7664Z" fill="#161414"/>
<path d="M68.1919 23.7475V11.7083H70.8676V16.7089H73.1546L76.9664 11.7083H80.0307L75.5463 17.4171L80.2848 23.7475H77.1757L73.3938 18.7901H70.8526V23.7475H68.1919Z" fill="#161414"/>
<path d="M88.222 23.9498C87.4297 23.9498 86.6823 23.8631 85.9648 23.7041C85.2622 23.5307 84.6195 23.285 84.0365 22.9381C83.4535 22.5913 82.9752 22.1577 82.5865 21.6374C82.1979 21.1171 81.9288 20.4811 81.7644 19.7585H84.5148C84.6643 20.1487 84.9334 20.4956 85.3071 20.7847C85.6808 21.0737 86.1143 21.305 86.6076 21.4639C87.1009 21.6374 87.6091 21.7096 88.1173 21.7096C88.8946 21.7096 89.5822 21.594 90.1801 21.3483C90.7781 21.1171 91.2415 20.7702 91.5853 20.3077C91.9291 19.8452 92.1084 19.2671 92.1084 18.5445C92.1084 17.5472 91.7646 16.7812 91.077 16.232C90.3894 15.6828 89.4776 15.4082 88.3565 15.4082C87.6838 15.4082 87.056 15.5094 86.473 15.7117C85.8901 15.914 85.3669 16.2031 84.8736 16.5644H82.2876L82.9303 7.5603H94.2759V9.77159H85.4416L85.0231 14.252C85.5014 13.9196 86.0844 13.6594 86.772 13.4715C87.4596 13.2836 88.2369 13.2114 89.1188 13.2258C90.2997 13.2258 91.3162 13.4426 92.1832 13.8617C93.0502 14.2953 93.7228 14.8879 94.2012 15.6539C94.6795 16.4199 94.9187 17.3304 94.9187 18.3566C94.9187 19.5273 94.6197 20.5245 94.0218 21.3483C93.4239 22.1721 92.6167 22.808 91.6152 23.2416C90.6136 23.733 89.4776 23.9498 88.222 23.9498Z" fill="#161414"/>
<path d="M103.14 23.9354C102.288 23.9354 101.481 23.8486 100.674 23.6897C99.8816 23.5162 99.1641 23.2561 98.5363 22.8803C97.9085 22.5045 97.4002 22.0131 97.0265 21.4061C96.6528 20.7991 96.4585 20.0476 96.4585 19.1659C96.4585 18.5589 96.5781 18.0097 96.8023 17.5039C97.0265 17.0125 97.3554 16.5789 97.8038 16.2176C98.2373 15.8562 98.7605 15.5672 99.3435 15.3504C98.7455 15.0613 98.2672 14.7145 97.9234 14.3098C97.5796 13.9051 97.3404 13.4715 97.2209 13.0235C97.1013 12.561 97.0415 12.1274 97.0415 11.7227C97.0415 10.9423 97.2208 10.2919 97.5647 9.74268C97.9085 9.20792 98.3718 8.75989 98.9698 8.41302C99.5527 8.06615 100.21 7.82045 100.943 7.66147C101.675 7.50249 102.423 7.41577 103.2 7.41577C103.962 7.41577 104.71 7.50249 105.427 7.66147C106.16 7.82045 106.803 8.0806 107.4 8.42747C107.983 8.77434 108.447 9.22238 108.806 9.77158C109.149 10.3208 109.329 10.9856 109.329 11.7661C109.329 12.1563 109.269 12.5754 109.134 13.0235C109 13.4715 108.761 13.8906 108.417 14.2809C108.073 14.6711 107.595 15.018 106.967 15.2926C107.595 15.5094 108.118 15.7984 108.566 16.1886C109 16.5644 109.344 17.0125 109.568 17.5183C109.792 18.0242 109.912 18.5878 109.912 19.2093C109.912 20.0765 109.717 20.8136 109.344 21.4206C108.97 22.0276 108.447 22.519 107.804 22.8948C107.161 23.2705 106.444 23.5451 105.652 23.7041C104.799 23.8486 103.992 23.9354 103.14 23.9354ZM103.14 21.7385C103.559 21.7385 103.992 21.6952 104.441 21.6229C104.889 21.5506 105.308 21.4206 105.711 21.2182C106.115 21.0303 106.429 20.7557 106.683 20.4233C106.937 20.0765 107.057 19.6573 107.057 19.137C107.057 18.5011 106.877 17.9952 106.519 17.6195C106.16 17.2437 105.681 16.9691 105.084 16.7957C104.486 16.6222 103.843 16.5355 103.155 16.5355C102.483 16.5355 101.84 16.6222 101.257 16.7957C100.659 16.9691 100.181 17.2437 99.8069 17.6195C99.4332 17.9952 99.2538 18.5011 99.2538 19.137C99.2538 19.6573 99.3734 20.0909 99.6275 20.4233C99.8816 20.7702 100.21 21.0303 100.614 21.2182C101.018 21.4061 101.451 21.5362 101.9 21.6229C102.318 21.6952 102.737 21.7385 103.14 21.7385ZM103.17 14.5121C103.798 14.5121 104.351 14.4254 104.844 14.2375C105.338 14.0496 105.741 13.7895 106.055 13.4281C106.369 13.0668 106.519 12.6332 106.519 12.1129C106.533 11.5059 106.384 11.0145 106.085 10.6388C105.771 10.263 105.368 9.98837 104.859 9.81494C104.351 9.64151 103.783 9.55479 103.155 9.55479C102.512 9.55479 101.944 9.64151 101.436 9.81494C100.928 9.98837 100.524 10.263 100.24 10.6243C99.9563 10.9856 99.8069 11.4481 99.8069 12.0118C99.8069 12.5754 99.9563 13.0379 100.27 13.4137C100.584 13.7895 100.988 14.0641 101.496 14.2375C102.004 14.4254 102.557 14.5121 103.17 14.5121Z" fill="#161414"/>
<path d="M14.1696 23.7331H5.45492C4.64772 23.7331 3.99001 23.0971 3.99001 22.3167V15.0469C3.99001 14.2809 4.58793 13.5872 5.38018 13.5438C6.23221 13.5005 6.93477 14.1508 6.93477 14.9602V20.8859H14.1696C15.9634 20.8859 17.4133 19.4839 17.4133 17.7496C17.4133 15.2493 15.3206 13.2114 12.7197 13.2114H1.46379C0.985455 13.2114 0.507118 13.0235 0.223106 12.6622C-0.240283 12.0696 -0.165543 11.2892 0.357638 10.7833L11.1352 0.362834C11.7032 -0.186374 12.6449 -0.186374 13.2129 0.362834L21.9426 8.41307C22.4807 8.93337 22.5854 9.80054 22.107 10.3787C21.5539 11.0435 20.5375 11.0724 19.9246 10.4943L12.1666 3.38348L4.93173 10.3787H12.7197C16.935 10.3787 20.3432 13.6739 20.3432 17.7496C20.3432 21.0593 17.5778 23.7331 14.1696 23.7331Z" fill="#6AB543"/>
</g>
<defs>
<clipPath id="clip0_4259_223">
<rect width="110" height="24" fill="white"/>
</clipPath>
</defs>
</svg>
