<svg width="195" height="64" viewBox="0 0 195 64" fill="none" xmlns="http://www.w3.org/2000/svg">
<path d="M50.3633 43.6645C47.8458 43.6645 45.7259 43.1898 43.9769 42.2666C42.2279 41.3435 40.9029 40.0247 40.0019 38.3367C39.1009 36.6486 38.6504 34.6705 38.6504 32.455C38.6504 30.213 39.1009 28.2349 40.0019 26.5469C40.9029 24.8588 42.2279 23.5401 43.9769 22.5905C45.7259 21.641 47.8723 21.1399 50.4163 21.1399C52.9338 21.1399 55.0538 21.6147 56.8028 22.5905C58.5518 23.5401 59.8768 24.8852 60.7513 26.5732C61.6258 28.2613 62.0763 30.2394 62.0763 32.5077C62.0763 34.6969 61.6258 36.6486 60.7248 38.3367C59.8238 40.0247 58.4988 41.3435 56.7763 42.2666C55.0273 43.2161 52.9073 43.6645 50.3633 43.6645ZM50.3633 39.8401C52.0063 39.8401 53.3578 39.4972 54.3913 38.8378C55.4248 38.1784 56.1668 37.2817 56.6703 36.1739C57.1473 35.0661 57.4123 33.8265 57.4123 32.5077C57.4123 31.1626 57.1738 29.9493 56.6703 28.8151C56.1668 27.681 55.4248 26.7842 54.3913 26.0985C53.3578 25.4127 52.0328 25.0698 50.3633 25.0698C48.7468 25.0698 47.3953 25.4127 46.3618 26.0985C45.3284 26.7842 44.5599 27.681 44.0829 28.7888C43.6059 29.8965 43.3674 31.1362 43.3674 32.5077C43.3674 33.8528 43.6059 35.0661 44.0829 36.1739C44.5599 37.2817 45.3284 38.1784 46.3618 38.8378C47.3953 39.4972 48.7468 39.8401 50.3633 39.8401Z" fill="white"/>
<path d="M64.9121 43.427V21.4563H70.9806L78.427 31.9801L85.741 21.4563H91.7035V43.427H86.96V26.6523L79.01 38.152H77.632L69.6556 26.6259V43.427H64.9121Z" fill="white"/>
<path d="M95.4668 43.427V21.4563H100.21V37.0178C100.422 36.6749 100.687 36.3057 101.032 35.91C101.376 35.5144 101.641 35.1715 101.8 34.9341L112.877 21.4563H117.276V43.427H112.533V27.9447C112.294 28.3139 112.029 28.6568 111.764 28.9997C111.499 29.3426 111.234 29.6591 110.969 29.9492L99.8923 43.427H95.4668Z" fill="white"/>
<path d="M121.039 43.427V21.4563H125.783V30.5822H129.837L136.594 21.4563H142.027L134.077 31.8746L142.477 43.427H136.965L130.261 34.3803H125.756V43.427H121.039Z" fill="white"/>
<path d="M156.55 43.7966C155.145 43.7966 153.82 43.6383 152.548 43.3482C151.303 43.0317 150.163 42.5833 149.13 41.9503C148.096 41.3173 147.248 40.526 146.559 39.5765C145.87 38.627 145.393 37.4665 145.102 36.1477H149.978C150.243 36.8598 150.72 37.4929 151.382 38.0204C152.045 38.5479 152.813 38.9699 153.688 39.26C154.562 39.5765 155.463 39.7084 156.364 39.7084C157.742 39.7084 158.961 39.4974 160.021 39.049C161.081 38.627 161.902 37.994 162.512 37.15C163.121 36.306 163.439 35.2509 163.439 33.9322C163.439 32.1123 162.83 30.7144 161.611 29.7121C160.392 28.7098 158.775 28.2087 156.788 28.2087C155.596 28.2087 154.483 28.3933 153.449 28.7626C152.416 29.1318 151.488 29.6594 150.614 30.3187H146.029L147.169 13.8868H167.282V17.9223H151.621L150.879 26.0987C151.727 25.492 152.76 25.0173 153.979 24.6744C155.198 24.3315 156.576 24.1996 158.14 24.226C160.233 24.226 162.035 24.6216 163.572 25.3865C165.109 26.1778 166.301 27.2592 167.149 28.6571C167.997 30.055 168.421 31.7166 168.421 33.5893C168.421 35.7257 167.891 37.5456 166.831 39.049C165.771 40.5524 164.34 41.7129 162.565 42.5042C160.789 43.401 158.775 43.7966 156.55 43.7966Z" fill="white"/>
<path d="M182.996 43.7699C181.485 43.7699 180.054 43.6117 178.623 43.3215C177.219 43.005 175.947 42.5303 174.834 41.8445C173.721 41.1588 172.82 40.262 172.157 39.1542C171.495 38.0465 171.15 36.6749 171.15 35.066C171.15 33.9583 171.362 32.956 171.76 32.0329C172.157 31.1361 172.74 30.3448 173.535 29.6854C174.304 29.0261 175.231 28.4985 176.265 28.1029C175.205 27.5754 174.357 26.9424 173.747 26.2039C173.138 25.4654 172.714 24.6741 172.502 23.8565C172.29 23.0125 172.184 22.2212 172.184 21.4827C172.184 20.0584 172.502 18.8715 173.111 17.8692C173.721 16.8934 174.542 16.0757 175.602 15.4427C176.636 14.8097 177.802 14.3613 179.1 14.0712C180.399 13.7811 181.724 13.6228 183.102 13.6228C184.453 13.6228 185.778 13.7811 187.05 14.0712C188.349 14.3613 189.488 14.8361 190.548 15.4691C191.582 16.1021 192.403 16.9197 193.039 17.922C193.649 18.9243 193.967 20.1375 193.967 21.5618C193.967 22.2739 193.861 23.0388 193.622 23.8565C193.384 24.6741 192.96 25.439 192.35 26.1511C191.741 26.8633 190.893 27.4963 189.78 27.9974C190.893 28.393 191.82 28.9206 192.615 29.6327C193.384 30.3185 193.993 31.1361 194.391 32.0592C194.788 32.9824 195 34.011 195 35.1452C195 36.7277 194.656 38.0728 193.993 39.1806C193.331 40.2884 192.403 41.1851 191.264 41.8709C190.124 42.5567 188.852 43.0578 187.448 43.3479C185.937 43.6117 184.506 43.7699 182.996 43.7699ZM182.996 39.7609C183.738 39.7609 184.506 39.6817 185.301 39.5499C186.096 39.418 186.838 39.1806 187.554 38.8113C188.269 38.4685 188.826 37.9673 189.276 37.3607C189.727 36.7277 189.939 35.9628 189.939 35.0133C189.939 33.8528 189.621 32.9296 188.985 32.2439C188.349 31.5581 187.501 31.057 186.441 30.7405C185.381 30.424 184.241 30.2657 183.022 30.2657C181.83 30.2657 180.69 30.424 179.657 30.7405C178.597 31.057 177.749 31.5581 177.086 32.2439C176.424 32.9296 176.106 33.8528 176.106 35.0133C176.106 35.9628 176.318 36.7541 176.768 37.3607C177.219 37.9937 177.802 38.4685 178.517 38.8113C179.233 39.1542 180.001 39.3916 180.796 39.5499C181.538 39.6817 182.28 39.7609 182.996 39.7609ZM183.049 26.5731C184.162 26.5731 185.142 26.4149 186.017 26.072C186.891 25.7291 187.607 25.2544 188.163 24.595C188.72 23.9356 188.985 23.1443 188.985 22.1948C189.011 21.0871 188.746 20.1903 188.216 19.5045C187.66 18.8188 186.944 18.3176 186.043 18.0011C185.142 17.6846 184.135 17.5264 183.022 17.5264C181.883 17.5264 180.876 17.6846 179.975 18.0011C179.074 18.3176 178.358 18.8188 177.855 19.4781C177.351 20.1375 177.086 20.9815 177.086 22.0102C177.086 23.0388 177.351 23.8829 177.908 24.5686C178.464 25.2544 179.18 25.7555 180.081 26.072C180.982 26.4149 181.962 26.5731 183.049 26.5731Z" fill="white"/>
<path d="M25.2684 43.4008H9.81893C8.38794 43.4008 7.22194 42.2403 7.22194 40.816V27.5491C7.22194 26.1512 8.28194 24.8852 9.68643 24.8061C11.1969 24.727 12.4424 25.9139 12.4424 27.3909V38.2048H25.2684C28.4483 38.2048 31.0188 35.6464 31.0188 32.4813C31.0188 27.9184 27.3088 24.1995 22.6979 24.1995H2.74347C1.89547 24.1995 1.04747 23.8566 0.543976 23.1972C-0.277519 22.1158 -0.14502 20.6915 0.782476 19.7684L19.8889 0.7517C20.8959 -0.250567 22.5654 -0.250567 23.5724 0.7517L39.0483 15.4428C40.0023 16.3923 40.1878 17.9749 39.3398 19.0299C38.3593 20.2432 36.5573 20.2959 35.4708 19.2409L21.7174 6.26417L8.89143 19.0299H22.6979C30.1708 19.0299 36.2128 25.0435 36.2128 32.4813C36.2128 38.5213 31.3103 43.4008 25.2684 43.4008Z" fill="#6AB543"/>
<path d="M20.3398 61.89L23.2018 54.2411H24.5533L27.3888 61.89H26.3553L25.7458 60.2547H21.9563L21.3468 61.89H20.3398ZM22.2743 59.3843H25.4543L23.8643 55.0587L22.2743 59.3843Z" fill="white"/>
<path d="M28.9785 61.8898V54.241H31.6285C32.185 54.241 32.6885 54.3201 33.086 54.5047C33.4835 54.6893 33.8015 54.9795 34.0135 55.3487C34.2255 55.718 34.3315 56.1927 34.3315 56.773C34.3315 57.3269 34.199 57.8017 33.9605 58.1973C33.722 58.5929 33.3775 58.883 32.927 59.0677C32.503 59.2523 31.9995 59.3578 31.4165 59.3578H29.906V61.8898H28.9785ZM29.9325 58.5138H31.4165C31.9995 58.5138 32.4765 58.3819 32.8475 58.0918C33.2185 57.8016 33.404 57.3533 33.404 56.7466C33.404 56.1927 33.245 55.7971 32.9535 55.507C32.662 55.2432 32.2115 55.085 31.6285 55.085H29.959V58.5138H29.9325Z" fill="white"/>
<path d="M36.3184 61.8898V54.241H41.4858V55.085H37.2724V57.6698H41.0618V58.5402H37.2724V61.0458H41.4858V61.8898H36.3184Z" fill="white"/>
<path d="M43.5 61.8898V54.241H44.454V57.6961H48.5615V54.241H49.5155V61.8898H48.5615V58.5665H44.454V61.8898H43.5Z" fill="white"/>
<path d="M51.2129 63.9999V61.0458C51.4779 61.0458 51.6634 60.9931 51.7959 60.8876C51.9284 60.7821 52.0344 60.6502 52.1139 60.4919C52.1669 60.3601 52.2199 60.1754 52.2729 59.9644C52.3259 59.7534 52.3524 59.5424 52.3789 59.305C52.4054 59.0677 52.4319 58.8303 52.4584 58.5665C52.5114 57.8544 52.5379 57.1159 52.5644 56.4037C52.5909 55.6916 52.5909 54.9531 52.6174 54.241H57.5199V61.0194H58.4474V63.9735H57.4934V61.8635H52.1669V63.9735H51.2129V63.9999ZM52.9619 61.0458H56.5924V55.1114H53.5449L53.4389 58.0918C53.4389 58.2764 53.4124 58.461 53.4124 58.6984C53.4124 58.9358 53.3859 59.1995 53.3594 59.4369C53.3329 59.7007 53.2799 59.9644 53.2269 60.2546C53.1474 60.5183 53.0679 60.7821 52.9619 61.0458Z" fill="white"/>
<path d="M59.5605 61.8898L62.4225 54.241H63.774L66.6095 61.8898H65.6025L64.993 60.2546H61.2035L60.594 61.8898H59.5605ZM61.495 59.3842H64.675L63.085 55.0586L61.495 59.3842Z" fill="white"/>
<path d="M70.9805 63.9999V61.0458C71.2455 61.0458 71.431 60.9931 71.5635 60.8876C71.696 60.7821 71.802 60.6502 71.8815 60.4919C71.9345 60.3601 71.9875 60.1754 72.0405 59.9644C72.0935 59.7534 72.12 59.5424 72.1465 59.305C72.173 59.0677 72.1995 58.8303 72.226 58.5665C72.279 57.8544 72.3055 57.1159 72.332 56.4037C72.3585 55.6916 72.3585 54.9531 72.385 54.241H77.2874V61.0194H78.2149V63.9735H77.2609V61.8635H71.9345V63.9735H70.9805V63.9999ZM72.7295 61.0458H76.3334V55.1114H73.286L73.18 58.0918C73.18 58.2764 73.1535 58.461 73.1535 58.6984C73.1535 58.9358 73.127 59.1995 73.1005 59.4369C73.074 59.7007 73.021 59.9644 72.968 60.2546C72.915 60.5183 72.8355 60.7821 72.7295 61.0458Z" fill="white"/>
<path d="M83.1177 61.969C82.3227 61.969 81.6602 61.8107 81.1302 61.4679C80.6002 61.125 80.2027 60.6766 79.9112 60.07C79.6197 59.4633 79.5137 58.8039 79.5137 58.0654C79.5137 57.3269 79.6462 56.6412 79.9112 56.0609C80.1762 55.4806 80.5737 55.0059 81.1302 54.663C81.6602 54.3201 82.3227 54.1619 83.1177 54.1619C83.9127 54.1619 84.5751 54.3201 85.1051 54.663C85.6351 55.0059 86.0326 55.4543 86.3241 56.0609C86.6156 56.6675 86.7216 57.3269 86.7216 58.0654C86.7216 58.8039 86.5891 59.4633 86.3241 60.07C86.0591 60.6766 85.6616 61.125 85.1051 61.4679C84.6016 61.8107 83.9127 61.969 83.1177 61.969ZM83.1177 61.125C83.7272 61.125 84.2306 60.9931 84.6281 60.703C85.0256 60.4128 85.3171 60.0436 85.5026 59.5952C85.6881 59.1468 85.7676 58.6193 85.7676 58.0654C85.7676 57.6434 85.7146 57.2478 85.6086 56.8785C85.5026 56.5093 85.3436 56.1928 85.1316 55.9026C84.9196 55.6125 84.6281 55.4015 84.3101 55.2433C83.9657 55.085 83.5947 55.0059 83.1442 55.0059C82.5347 55.0059 82.0577 55.1378 81.6602 55.4279C81.2627 55.718 80.9712 56.0873 80.7857 56.5357C80.6002 56.984 80.4942 57.5116 80.4942 58.0654C80.4942 58.6193 80.6002 59.1204 80.7857 59.5688C80.9712 60.0172 81.2627 60.4128 81.6602 60.6766C82.0312 60.9931 82.5082 61.125 83.1177 61.125Z" fill="white"/>
<path d="M88.7363 61.8898V54.241H90.1408L92.4993 58.4347L94.8048 54.241H96.1828V61.8898H95.2288V55.1905L92.6848 59.8853H92.2608L89.6903 55.1905V61.8898H88.7363Z" fill="white"/>
<path d="M101.827 61.969C101.032 61.969 100.369 61.8107 99.8391 61.4679C99.3092 61.125 98.9117 60.6766 98.6202 60.07C98.3552 59.4897 98.2227 58.8039 98.2227 58.0654C98.2227 57.3269 98.3552 56.6412 98.6202 56.0609C98.8852 55.4806 99.2827 55.0059 99.8391 54.663C100.369 54.3201 101.032 54.1619 101.827 54.1619C102.622 54.1619 103.284 54.3201 103.814 54.663C104.344 55.0059 104.742 55.4543 105.007 56.0609C105.272 56.6412 105.404 57.3269 105.404 58.0654C105.404 58.8039 105.272 59.4633 105.007 60.07C104.742 60.6502 104.344 61.125 103.814 61.4679C103.284 61.8107 102.622 61.969 101.827 61.969ZM101.827 61.125C102.436 61.125 102.94 60.9931 103.337 60.703C103.735 60.4128 104.026 60.0436 104.212 59.5952C104.397 59.1468 104.477 58.6193 104.477 58.0654C104.477 57.6434 104.424 57.2478 104.318 56.8785C104.212 56.5093 104.053 56.1928 103.841 55.9026C103.629 55.6125 103.337 55.4015 103.019 55.2433C102.675 55.085 102.304 55.0059 101.853 55.0059C101.244 55.0059 100.767 55.1378 100.369 55.4279C99.9716 55.718 99.6801 56.0873 99.4946 56.5357C99.3091 56.984 99.2031 57.5116 99.2031 58.0654C99.2031 58.6193 99.3091 59.1204 99.4946 59.5688C99.6801 60.0172 99.9716 60.4128 100.369 60.6766C100.714 60.9931 101.217 61.125 101.827 61.125Z" fill="white"/>
<path d="M107.418 61.8898V54.241H110.121C110.492 54.241 110.863 54.2673 111.154 54.3201C111.472 54.3728 111.737 54.4783 111.976 54.6366C112.214 54.7685 112.373 54.9795 112.506 55.2169C112.638 55.4542 112.691 55.7707 112.691 56.14C112.691 56.5356 112.612 56.8785 112.426 57.1686C112.241 57.4588 111.976 57.6961 111.605 57.828C112.108 57.9071 112.479 58.1182 112.718 58.461C112.956 58.7775 113.089 59.1995 113.089 59.7271C113.089 60.1491 113.009 60.4919 112.85 60.7557C112.691 61.0194 112.479 61.2568 112.188 61.4151C111.896 61.5733 111.578 61.7052 111.234 61.758C110.863 61.8371 110.492 61.8635 110.068 61.8635H107.418V61.8898ZM108.372 57.5906H109.856C110.121 57.5906 110.386 57.5643 110.598 57.5115C110.836 57.4588 111.022 57.3796 111.207 57.2741C111.393 57.1686 111.525 57.0368 111.605 56.8521C111.684 56.6675 111.764 56.4565 111.764 56.1927C111.764 55.8499 111.684 55.6125 111.525 55.4542C111.366 55.296 111.181 55.1905 110.916 55.1377C110.677 55.085 110.412 55.0586 110.121 55.0586H108.372V57.5906ZM108.372 61.0458H110.041C110.253 61.0458 110.492 61.0458 110.73 61.0194C110.969 60.9931 111.207 60.9403 111.419 60.8612C111.631 60.7821 111.79 60.6502 111.923 60.4656C112.055 60.2809 112.108 60.0436 112.108 59.7534C112.108 59.4897 112.055 59.2787 111.949 59.1204C111.843 58.9622 111.711 58.8303 111.552 58.7248C111.393 58.6193 111.207 58.5665 110.995 58.5402C110.783 58.5138 110.571 58.4874 110.359 58.4874H108.345V61.0458H108.372Z" fill="white"/>
<path d="M118.574 61.8898V54.241H119.528V60.4128L123.636 54.241H124.643V61.8898H123.689V55.7707L119.555 61.8898H118.574Z" fill="white"/>
<path d="M130.553 61.89V54.2411H131.507V57.7754H132.646L135.137 54.2411H136.224L133.468 58.0391L136.25 61.89H135.137L132.726 58.6194H131.507V61.89H130.553Z" fill="white"/>
<path d="M137.867 61.8898V54.241H140.57C140.941 54.241 141.312 54.2673 141.604 54.3201C141.922 54.3728 142.187 54.4783 142.425 54.6366C142.664 54.7685 142.823 54.9795 142.955 55.2169C143.088 55.4542 143.141 55.7707 143.141 56.14C143.141 56.5356 143.061 56.8785 142.876 57.1686C142.69 57.4588 142.425 57.6961 142.054 57.828C142.558 57.9071 142.929 58.1182 143.167 58.461C143.406 58.7775 143.538 59.1995 143.538 59.7271C143.538 60.1491 143.459 60.4919 143.3 60.7557C143.141 61.0194 142.929 61.2568 142.637 61.4151C142.346 61.5733 142.028 61.7052 141.683 61.758C141.312 61.8371 140.941 61.8635 140.517 61.8635H137.867V61.8898ZM138.821 57.5906H140.305C140.57 57.5906 140.835 57.5643 141.047 57.5115C141.286 57.4588 141.471 57.3796 141.657 57.2741C141.842 57.1686 141.975 57.0368 142.054 56.8521C142.134 56.6675 142.213 56.4565 142.213 56.1927C142.213 55.8499 142.134 55.6125 141.975 55.4542C141.816 55.296 141.63 55.1905 141.365 55.1377C141.127 55.085 140.862 55.0586 140.57 55.0586H138.821V57.5906ZM138.821 61.0458H140.491C140.703 61.0458 140.941 61.0458 141.18 61.0194C141.418 60.9931 141.657 60.9403 141.869 60.8612C142.081 60.7821 142.24 60.6502 142.372 60.4656C142.505 60.2809 142.558 60.0436 142.558 59.7534C142.558 59.4897 142.505 59.2787 142.399 59.1204C142.293 58.9622 142.16 58.8303 142.001 58.7248C141.842 58.6193 141.657 58.5665 141.445 58.5402C141.233 58.5138 141.021 58.4874 140.809 58.4874H138.795V61.0458H138.821Z" fill="white"/>
<path d="M144.703 61.8898L147.565 54.241H148.917L151.752 61.8898H150.719L150.109 60.2546H146.32L145.71 61.8898H144.703ZM146.638 59.3842H149.818L148.228 55.0586L146.638 59.3842Z" fill="white"/>
<path d="M153.369 61.89V54.2411H156.019C156.576 54.2411 157.079 54.3202 157.477 54.5048C157.874 54.6895 158.192 54.9796 158.404 55.3489C158.616 55.7181 158.722 56.1929 158.722 56.7731C158.722 57.327 158.59 57.8018 158.351 58.1974C158.113 58.593 157.768 58.8832 157.318 59.0678C156.894 59.2524 156.39 59.3579 155.807 59.3579H154.297V61.89H153.369ZM154.297 58.5139H155.781C156.364 58.5139 156.841 58.382 157.212 58.0919C157.583 57.8018 157.768 57.3534 157.768 56.7468C157.768 56.1929 157.609 55.7972 157.318 55.5071C157.026 55.2434 156.576 55.0851 155.993 55.0851H154.323V58.5139H154.297Z" fill="white"/>
<path d="M162.379 61.8901V55.1116H159.914V54.2676H165.771V55.1116H163.306V61.8901H162.379Z" fill="white"/>
<path d="M167.414 61.89V54.2411H168.368V60.4129L172.476 54.2411H173.483V61.89H172.529V55.7709L168.395 61.89H167.414Z" fill="white"/>
<path d="M175.92 61.8898V54.241H178.57C179.126 54.241 179.63 54.3201 180.027 54.5047C180.425 54.6893 180.743 54.9795 180.955 55.3487C181.167 55.718 181.273 56.1927 181.273 56.773C181.273 57.3269 181.14 57.8017 180.902 58.1973C180.663 58.5929 180.319 58.883 179.868 59.0677C179.444 59.2523 178.941 59.3578 178.358 59.3578H176.847V61.8898H175.92ZM176.847 58.5138H178.331C178.914 58.5138 179.391 58.3819 179.762 58.0918C180.133 57.8016 180.319 57.3533 180.319 56.7466C180.319 56.1927 180.16 55.7971 179.868 55.507C179.577 55.2432 179.126 55.085 178.543 55.085H176.874V58.5138H176.847Z" fill="white"/>
</svg>
